<svg width="123" height="127" viewBox="0 0 123 127" fill="none" xmlns="http://www.w3.org/2000/svg">
<path d="M57.2903 108.119C57.0834 108.977 56.6056 109.739 55.933 110.284C55.2604 110.829 54.4315 111.125 53.5781 111.125C53.2557 111.127 52.9343 111.087 52.6214 111.006L37.3133 107.037C36.8871 106.926 36.4826 106.74 36.1174 106.486L24.6364 98.549C23.792 97.9648 23.206 97.0567 23.0073 96.0245C22.8086 94.9923 23.0134 93.9204 23.5768 93.0448C24.1401 92.1692 25.0157 91.5615 26.0111 91.3555C27.0065 91.1494 28.04 91.3618 28.8843 91.946L39.8104 99.5015L54.4775 103.307C54.9675 103.43 55.4292 103.652 55.8361 103.961C56.243 104.27 56.5871 104.659 56.8484 105.106C57.1098 105.553 57.2834 106.05 57.3593 106.567C57.4351 107.084 57.4117 107.611 57.2903 108.119ZM120.766 60.2654C120.452 61.2546 119.952 62.1694 119.295 62.957C118.638 63.7446 117.838 64.3895 116.939 64.8543L105.611 70.7281L79.2621 98.0579C78.7945 98.5423 78.2138 98.893 77.5767 99.0755C76.9395 99.2581 76.2676 99.2664 75.6265 99.0997L45.0104 91.1622C44.5448 91.0409 44.1051 90.8306 43.714 90.542L17.1546 70.8769L5.53958 64.8543C3.72432 63.9133 2.34375 62.2631 1.70145 60.2667C1.05914 58.2703 1.20768 56.091 2.11441 54.2081L14.0021 29.5572C14.9095 27.6748 16.5007 26.2431 18.4259 25.577C20.351 24.9109 22.4524 25.0649 24.268 26.0052L34.821 31.4622L60.1749 23.9514C60.8627 23.7474 61.5919 23.7474 62.2798 23.9514L87.6337 31.4622L98.1867 26.0052C100.002 25.0649 102.104 24.9109 104.029 25.577C105.954 26.2431 107.545 27.6748 108.453 29.5572L120.34 54.2081C120.794 55.1385 121.065 56.1529 121.138 57.1926C121.211 58.2323 121.085 59.2767 120.766 60.2654ZM98.6746 66.6849L85.658 39.6875H70.4361L49.7511 60.5234C55.8073 64.5368 65.3031 65.6431 73.823 56.7382C74.4884 56.0427 75.3783 55.627 76.3216 55.5711C77.2648 55.5152 78.1946 55.8232 78.932 56.4356L95.393 70.1129L98.6746 66.6849ZM8.95997 57.7552L17.4224 62.1456L29.3101 37.4948L20.8476 33.1043L8.95997 57.7552ZM89.9347 75.7337L76.6789 64.7253C67.3314 72.6628 55.4629 73.7096 45.6275 67.2058C44.66 66.5676 43.8432 65.7121 43.2373 64.7025C42.6314 63.693 42.252 62.5552 42.1271 61.3732C42.0022 60.1911 42.135 58.9951 42.5156 57.8734C42.8963 56.7518 43.5151 55.7331 44.3263 54.8928C44.3378 54.8783 44.3507 54.865 44.3646 54.8531L65.8245 33.268L61.2321 31.9087L37.1124 39.0574L24.0193 66.2087L47.5554 83.6464L75.3681 90.8546L89.9347 75.7337ZM113.49 57.7552L101.617 33.1043L93.1542 37.4948L105.042 62.1456L113.49 57.7552Z" fill="#F8F8F8"/>
</svg>
